0
SECTION
2
HEADER
9
$INSUNITS
70
4
9
$ACADVER
1
AC1014
9
$HANDSEED
5
FFFF
0
ENDSEC
0
SECTION
2
TABLES
0
TABLE
2
VPORT
5
8
100
AcDbSymbolTable
0
ENDTAB
0
TABLE
2
LTYPE
5
5
100
AcDbSymbolTable
0
LTYPE
5
14
100
AcDbSymbolTableRecord
100
AcDbLinetypeTableRecord
2
BYBLOCK
70
0
0
LTYPE
5
15
100
AcDbSymbolTableRecord
100
AcDbLinetypeTableRecord
2
BYLAYER
70
0
0
LTYPE
5
16
100
AcDbSymbolTableRecord
100
AcDbLinetypeTableRecord
2
DASHED
70
0
3
Dashed __ __ __ __ __ __ __ __ __ __ __ __ __ _
72
65
73
2
40
0.75
49
0.5
74
0
49
-0.25
74
0
0
ENDTAB
0
TABLE
2
LAYER
5
2
100
AcDbSymbolTable
70
2
0
LAYER
5
50
100
AcDbSymbolTableRecord
100
AcDbLayerTableRecord
2
0
70
0
62
7
6
CONTINUOUS
0
ENDTAB
0
TABLE
2
STYLE
5
3
100
AcDbSymbolTable
70
1
0
STYLE
5
11
100
AcDbSymbolTableRecord
100
AcDbTextStyleTableRecord
2
STANDARD
70
0
0
ENDTAB
0
TABLE
2
VIEW
5
6
100
AcDbSymbolTable
70
0
0
ENDTAB
0
TABLE
2
UCS
5
7
100
AcDbSymbolTable
70
0
0
ENDTAB
0
TABLE
2
APPID
5
9
100
AcDbSymbolTable
70
2
0
APPID
5
12
100
AcDbSymbolTableRecord
100
AcDbRegAppTableRecord
2
ACAD
70
0
0
ENDTAB
0
TABLE
2
DIMSTYLE
5
A
100
AcDbSymbolTable
70
1
0
ENDTAB
0
TABLE
2
BLOCK_RECORD
5
1
100
AcDbSymbolTable
70
1
0
BLOCK_RECORD
5
1F
100
AcDbSymbolTableRecord
100
AcDbBlockTableRecord
2
*MODEL_SPACE
0
BLOCK_RECORD
5
1B
100
AcDbSymbolTableRecord
100
AcDbBlockTableRecord
2
*PAPER_SPACE
0
ENDTAB
0
ENDSEC
0
SECTION
2
BLOCKS
0
BLOCK
5
20
100
AcDbEntity
100
AcDbBlockBegin
2
*MODEL_SPACE
0
ENDBLK
5
21
100
AcDbEntity
100
AcDbBlockEnd
0
BLOCK
5
1C
100
AcDbEntity
100
AcDbBlockBegin
2
*PAPER_SPACE
0
ENDBLK
5
1D
100
AcDbEntity
100
AcDbBlockEnd
0
ENDSEC
0
SECTION
2
ENTITIES
0
ARC
5
100
100
AcDbEntity
8
0
100
AcDbCircle
10
87.350707021228203
20
-50.739911944637335
30
-99.80748521459094
40
3.2499999999284763
210
0
220
-0
230
1
100
AcDbArc
50
89.004399987868808
51
269.00439998788363
0
LINE
5
101
100
AcDbEntity
8
0
100
AcDbLine
10
87.294236243858307
20
-53.989421300053934
30
-99.80748521459094
11
92.578451316824641
21
-54.08125169668368
31
-99.80748521459094
0
ARC
5
102
100
AcDbEntity
8
0
100
AcDbCircle
10
92.634922094195161
20
-50.831742341231497
30
-99.80748521459094
40
3.2499999999797078
210
0
220
0
230
1
100
AcDbArc
50
-90.995600012116483
51
89.004399987868837
0
LINE
5
103
100
AcDbEntity
8
0
100
AcDbLine
10
92.691392871565611
20
-47.582232985831268
30
-99.80748521459094
11
87.407177798598667
21
-47.490402589236389
31
-99.80748521459094
0
LINE
5
104
100
AcDbEntity
8
0
100
AcDbLine
10
87.294861382669779
20
-85.733201295437567
30
-99.80748521459094
11
92.578944319695751
21
-85.824994240501908
31
-99.80748521459094
0
ARC
5
105
100
AcDbEntity
8
0
100
AcDbCircle
10
87.351310547422841
20
-82.483691564524705
30
-99.80748521459094
40
3.2499999999340838
210
0
220
-0
230
1
100
AcDbArc
50
89.004781064822467
51
269.00478106437879
0
LINE
5
106
100
AcDbEntity
8
0
100
AcDbLine
10
92.691842649177801
20
-79.3259747786133
30
-99.80748521459094
11
87.407759712150934
21
-79.234181833600204
31
-99.80748521459094
0
ARC
5
107
100
AcDbEntity
8
0
100
AcDbCircle
10
92.635393484449651
20
-82.575484509537489
30
-99.80748521459094
40
3.2499999999744409
210
0
220
0
230
1
100
AcDbArc
50
-90.995218935620215
51
89.004781064821358
0
ARC
5
108
100
AcDbEntity
8
0
100
AcDbCircle
10
87.350707021228203
20
-38.017844408994122
30
-99.80748521459094
40
3.249999999928479
210
0
220
-0
230
1
100
AcDbArc
50
89.004399988262193
51
269.00439998788363
0
LINE
5
109
100
AcDbEntity
8
0
100
AcDbLine
10
87.294236243858307
20
-41.267353764410721
30
-99.80748521459094
11
92.578451316824641
21
-41.359184161040474
31
-99.80748521459094
0
ARC
5
110
100
AcDbEntity
8
0
100
AcDbCircle
10
92.634922094195161
20
-38.109674805588291
30
-99.80748521459094
40
3.2499999999797078
210
0
220
0
230
1
100
AcDbArc
50
-90.995600012116483
51
89.004399988262421
0
LINE
5
111
100
AcDbEntity
8
0
100
AcDbLine
10
92.691392871543741
20
-34.860165450161702
30
-99.80748521459094
11
87.407177798576356
21
-34.768335053592793
31
-99.80748521459094
0
ARC
5
112
100
AcDbEntity
8
0
100
AcDbCircle
10
87.350707021228203
20
-6.2693782293706724
30
-99.80748521459094
40
3.2499999999284768
210
0
220
-0
230
1
100
AcDbArc
50
89.004399988543597
51
269.00439998788363
0
LINE
5
113
100
AcDbEntity
8
0
100
AcDbLine
10
87.294236243858307
20
-9.5188875847872687
30
-99.80748521459094
11
92.578451316824641
21
-9.6107179814170216
31
-99.80748521459094
0
LINE
5
114
100
AcDbEntity
8
0
100
AcDbLine
10
92.691392871527995
20
-3.111699270524988
30
-99.80748521459094
11
87.407177798560397
21
-3.0198688739690605
31
-99.80748521459094
0
ARC
5
115
100
AcDbEntity
8
0
100
AcDbCircle
10
92.634922094195161
20
-6.3612086259648359
30
-99.80748521459094
40
3.2499999999797078
210
0
220
0
230
1
100
AcDbArc
50
-90.995600012116483
51
89.004399988544023
0
ENDSEC
0
SECTION
2
OBJECTS
0
DICTIONARY
5
C
100
AcDbDictionary
3
ACAD_GROUP
350
D
3
ACAD_MLINESTYLE
350
17
0
DICTIONARY
5
D
100
AcDbDictionary
0
DICTIONARY
5
1A
330
C
100
AcDbDictionary
0
DICTIONARY
5
17
100
AcDbDictionary
0
ENDSEC
0
EOF
